<svg width="4" height="14" viewBox="0 0 4 14" fill="none" xmlns="http://www.w3.org/2000/svg">
<path d="M1.66667 2.33366V2.34033V2.33366ZM1.66667 7.00033V7.00699V7.00033ZM1.66667 11.667V11.6737V11.667ZM1.66667 3.00033C1.48986 3.00033 1.32029 2.93009 1.19526 2.80506C1.07024 2.68004 1 2.51047 1 2.33366C1 2.15685 1.07024 1.98728 1.19526 1.86225C1.32029 1.73723 1.48986 1.66699 1.66667 1.66699C1.84348 1.66699 2.01305 1.73723 2.13807 1.86225C2.2631 1.98728 2.33333 2.15685 2.33333 2.33366C2.33333 2.51047 2.2631 2.68004 2.13807 2.80506C2.01305 2.93009 1.84348 3.00033 1.66667 3.00033ZM1.66667 7.66699C1.48986 7.66699 1.32029 7.59675 1.19526 7.47173C1.07024 7.34671 1 7.17714 1 7.00033C1 6.82351 1.07024 6.65395 1.19526 6.52892C1.32029 6.4039 1.48986 6.33366 1.66667 6.33366C1.84348 6.33366 2.01305 6.4039 2.13807 6.52892C2.2631 6.65395 2.33333 6.82351 2.33333 7.00033C2.33333 7.17714 2.2631 7.34671 2.13807 7.47173C2.01305 7.59675 1.84348 7.66699 1.66667 7.66699ZM1.66667 12.3337C1.48986 12.3337 1.32029 12.2634 1.19526 12.1384C1.07024 12.0134 1 11.8438 1 11.667C1 11.4902 1.07024 11.3206 1.19526 11.1956C1.32029 11.0706 1.48986 11.0003 1.66667 11.0003C1.84348 11.0003 2.01305 11.0706 2.13807 11.1956C2.2631 11.3206 2.33333 11.4902 2.33333 11.667C2.33333 11.8438 2.2631 12.0134 2.13807 12.1384C2.01305 12.2634 1.84348 12.3337 1.66667 12.3337Z" stroke="#343434" stroke-width="2" stroke-linecap="round" stroke-linejoin="round"/>
</svg>
