<svg width="24" height="26" viewBox="0 0 24 26" fill="none" xmlns="http://www.w3.org/2000/svg">
<path d="M21.3333 2.60024H15.76C15.487 1.84031 14.9785 1.1819 14.3049 0.71606C13.6313 0.250225 12.8258 0 12 0C11.1742 0 10.3687 0.250225 9.69511 0.71606C9.0215 1.1819 8.51302 1.84031 8.24 2.60024H2.66667C1.96007 2.60229 1.28302 2.87688 0.78338 3.36402C0.28374 3.85117 0.0021103 4.51129 0 5.20021V23.4C0.0021103 24.0889 0.28374 24.7491 0.78338 25.2362C1.28302 25.7234 1.96007 25.9979 2.66667 26H21.3333C22.0399 25.9979 22.717 25.7234 23.2166 25.2362C23.7163 24.7491 23.9979 24.0889 24 23.4V5.20021C23.9979 4.51129 23.7163 3.85117 23.2166 3.36402C22.717 2.87688 22.0399 2.60229 21.3333 2.60024ZM12 2.60024C12.2637 2.60024 12.5215 2.67648 12.7408 2.81932C12.96 2.96217 13.1309 3.1652 13.2318 3.40274C13.3328 3.64028 13.3592 3.90167 13.3077 4.15384C13.2563 4.40601 13.1293 4.63765 12.9428 4.81945C12.7563 5.00126 12.5188 5.12507 12.2601 5.17523C12.0015 5.22539 11.7334 5.19965 11.4898 5.10125C11.2461 5.00286 11.0379 4.83624 10.8914 4.62246C10.7449 4.40868 10.6667 4.15734 10.6667 3.90022C10.6677 3.55576 10.8085 3.2257 11.0584 2.98213C11.3082 2.73856 11.6467 2.60127 12 2.60024ZM9.33333 9.10017L13.0533 12.7323L16.4133 9.45637L14.6667 7.80018H20V13.0001L18.2987 11.2958L13.056 16.4113L9.33333 12.7791L5.88533 16.1383L4 14.3001L9.33333 9.10017ZM21.3333 22.1H2.66667V19.5001H21.3333V22.1Z" fill="#3677B3"/>
</svg>
