<svg width="24" height="24" viewBox="0 0 24 24" fill="none" xmlns="http://www.w3.org/2000/svg">
<path d="M19.2 3.6V2.4C19.2 1.76348 18.9471 1.15303 18.4971 0.702944C18.047 0.252856 17.4365 0 16.8 0H14.4C13.7635 0 13.153 0.252856 12.7029 0.702944C12.2529 1.15303 12 1.76348 12 2.4V3.6H9.6V2.4C9.6 1.76348 9.34714 1.15303 8.89706 0.702944C8.44697 0.252856 7.83652 0 7.2 0H4.8C4.16348 0 3.55303 0.252856 3.10294 0.702944C2.65286 1.15303 2.4 1.76348 2.4 2.4V3.6H0V20.4H12.108C12.0353 20.0042 11.9991 19.6025 12 19.2C11.9994 18.0478 12.2753 16.9123 12.8046 15.8889C13.3338 14.8655 14.101 13.984 15.0415 13.3185C15.9821 12.6531 17.0687 12.2231 18.2099 12.0646C19.3511 11.9062 20.5137 12.0239 21.6 12.408V3.6H19.2ZM20.4 14.4V18H24V20.4H20.4V24H18V20.4H14.4V18H18V14.4H20.4Z" fill="#B23FE7"/>
</svg>
