<svg width="32" height="25" viewBox="0 0 32 25" fill="none" xmlns="http://www.w3.org/2000/svg">
<line x1="31.25" y1="1" x2="31.25" y2="23" stroke="#6F6F6F" stroke-width="0.5"/>
<path d="M4.704 18.848V23H4.158V19.904L2.778 23H2.394L1.008 19.898V23H0.462V18.848H1.05L2.586 22.28L4.122 18.848H4.704ZM5.42597 21.344C5.42597 21.008 5.49397 20.714 5.62997 20.462C5.76597 20.206 5.95197 20.008 6.18797 19.868C6.42797 19.728 6.69397 19.658 6.98597 19.658C7.27397 19.658 7.52397 19.72 7.73597 19.844C7.94797 19.968 8.10597 20.124 8.20997 20.312V19.712H8.76197V23H8.20997V22.388C8.10197 22.58 7.93997 22.74 7.72397 22.868C7.51197 22.992 7.26397 23.054 6.97997 23.054C6.68797 23.054 6.42397 22.982 6.18797 22.838C5.95197 22.694 5.76597 22.492 5.62997 22.232C5.49397 21.972 5.42597 21.676 5.42597 21.344ZM8.20997 21.35C8.20997 21.102 8.15997 20.886 8.05997 20.702C7.95997 20.518 7.82397 20.378 7.65197 20.282C7.48397 20.182 7.29797 20.132 7.09397 20.132C6.88997 20.132 6.70397 20.18 6.53597 20.276C6.36797 20.372 6.23397 20.512 6.13397 20.696C6.03397 20.88 5.98397 21.096 5.98397 21.344C5.98397 21.596 6.03397 21.816 6.13397 22.004C6.23397 22.188 6.36797 22.33 6.53597 22.43C6.70397 22.526 6.88997 22.574 7.09397 22.574C7.29797 22.574 7.48397 22.526 7.65197 22.43C7.82397 22.33 7.95997 22.188 8.05997 22.004C8.15997 21.816 8.20997 21.598 8.20997 21.35ZM10.3507 20.162V22.1C10.3507 22.26 10.3847 22.374 10.4527 22.442C10.5207 22.506 10.6387 22.538 10.8067 22.538H11.2087V23H10.7167C10.4127 23 10.1847 22.93 10.0327 22.79C9.88066 22.65 9.80466 22.42 9.80466 22.1V20.162H9.37866V19.712H9.80466V18.884H10.3507V19.712H11.2087V20.162H10.3507ZM14.8702 21.23C14.8702 21.334 14.8642 21.444 14.8522 21.56H12.2242C12.2442 21.884 12.3542 22.138 12.5542 22.322C12.7582 22.502 13.0042 22.592 13.2922 22.592C13.5282 22.592 13.7242 22.538 13.8802 22.43C14.0402 22.318 14.1522 22.17 14.2162 21.986H14.8042C14.7162 22.302 14.5402 22.56 14.2762 22.76C14.0122 22.956 13.6842 23.054 13.2922 23.054C12.9802 23.054 12.7002 22.984 12.4522 22.844C12.2082 22.704 12.0162 22.506 11.8762 22.25C11.7362 21.99 11.6662 21.69 11.6662 21.35C11.6662 21.01 11.7342 20.712 11.8702 20.456C12.0062 20.2 12.1962 20.004 12.4402 19.868C12.6882 19.728 12.9722 19.658 13.2922 19.658C13.6042 19.658 13.8802 19.726 14.1202 19.862C14.3602 19.998 14.5442 20.186 14.6722 20.426C14.8042 20.662 14.8702 20.93 14.8702 21.23ZM14.3062 21.116C14.3062 20.908 14.2602 20.73 14.1682 20.582C14.0762 20.43 13.9502 20.316 13.7902 20.24C13.6342 20.16 13.4602 20.12 13.2682 20.12C12.9922 20.12 12.7562 20.208 12.5602 20.384C12.3682 20.56 12.2582 20.804 12.2302 21.116H14.3062ZM16.1369 20.246C16.2329 20.058 16.3689 19.912 16.5449 19.808C16.7249 19.704 16.9429 19.652 17.1989 19.652V20.216H17.0549C16.4429 20.216 16.1369 20.548 16.1369 21.212V23H15.5909V19.712H16.1369V20.246ZM18.1112 19.178C18.0072 19.178 17.9192 19.142 17.8472 19.07C17.7752 18.998 17.7392 18.91 17.7392 18.806C17.7392 18.702 17.7752 18.614 17.8472 18.542C17.9192 18.47 18.0072 18.434 18.1112 18.434C18.2112 18.434 18.2952 18.47 18.3632 18.542C18.4352 18.614 18.4712 18.702 18.4712 18.806C18.4712 18.91 18.4352 18.998 18.3632 19.07C18.2952 19.142 18.2112 19.178 18.1112 19.178ZM18.3752 19.712V23H17.8292V19.712H18.3752ZM19.1018 21.344C19.1018 21.008 19.1698 20.714 19.3058 20.462C19.4418 20.206 19.6278 20.008 19.8638 19.868C20.1038 19.728 20.3698 19.658 20.6618 19.658C20.9498 19.658 21.1998 19.72 21.4118 19.844C21.6238 19.968 21.7818 20.124 21.8858 20.312V19.712H22.4378V23H21.8858V22.388C21.7778 22.58 21.6158 22.74 21.3998 22.868C21.1878 22.992 20.9398 23.054 20.6558 23.054C20.3638 23.054 20.0998 22.982 19.8638 22.838C19.6278 22.694 19.4418 22.492 19.3058 22.232C19.1698 21.972 19.1018 21.676 19.1018 21.344ZM21.8858 21.35C21.8858 21.102 21.8358 20.886 21.7358 20.702C21.6358 20.518 21.4998 20.378 21.3278 20.282C21.1598 20.182 20.9738 20.132 20.7698 20.132C20.5658 20.132 20.3798 20.18 20.2118 20.276C20.0438 20.372 19.9098 20.512 19.8098 20.696C19.7098 20.88 19.6598 21.096 19.6598 21.344C19.6598 21.596 19.7098 21.816 19.8098 22.004C19.9098 22.188 20.0438 22.33 20.2118 22.43C20.3798 22.526 20.5658 22.574 20.7698 22.574C20.9738 22.574 21.1598 22.526 21.3278 22.43C21.4998 22.33 21.6358 22.188 21.7358 22.004C21.8358 21.816 21.8858 21.598 21.8858 21.35ZM23.9064 18.56V23H23.3604V18.56H23.9064Z" fill="#1A548A"/>
<path d="M18.4444 2.29412V1.52941C18.4444 1.12379 18.2806 0.734775 17.9888 0.447954C17.6971 0.161134 17.3014 0 16.8889 0H15.3333C14.9208 0 14.5251 0.161134 14.2334 0.447954C13.9417 0.734775 13.7778 1.12379 13.7778 1.52941V2.29412H12.2222V1.52941C12.2222 1.12379 12.0583 0.734775 11.7666 0.447954C11.4749 0.161134 11.0792 0 10.6667 0H9.11111C8.69855 0 8.30289 0.161134 8.01117 0.447954C7.71944 0.734775 7.55556 1.12379 7.55556 1.52941V2.29412H6V13H20V2.29412H18.4444ZM18.4444 11.4706H7.55556V3.82353H18.4444V11.4706Z" fill="#1A548A"/>
</svg>
