<svg width="21" height="24" viewBox="0 0 21 24" fill="none" xmlns="http://www.w3.org/2000/svg">
<path d="M17.06 0H2.94C2.6907 0 2.4516 0.108039 2.27532 0.300349C2.09904 0.492659 2 0.753487 2 1.02545V10.9745C2 11.2465 2.09904 11.5073 2.27532 11.6997C2.4516 11.892 2.6907 12 2.94 12H17.06C17.3093 12 17.5484 11.892 17.7247 11.6997C17.901 11.5073 18 11.2465 18 10.9745V1.02545C18 0.753487 17.901 0.492659 17.7247 0.300349C17.5484 0.108039 17.3093 0 17.06 0ZM5.28 1.88182C5.57667 1.88182 5.86668 1.97779 6.11336 2.1576C6.36003 2.3374 6.55229 2.59297 6.66582 2.89197C6.77935 3.19098 6.80906 3.52 6.75118 3.83742C6.6933 4.15484 6.55044 4.44642 6.34066 4.67527C6.13088 4.90411 5.86361 5.05996 5.57264 5.1231C5.28166 5.18624 4.98006 5.15384 4.70597 5.02998C4.43189 4.90613 4.19762 4.6964 4.0328 4.4273C3.86797 4.1582 3.78 3.84182 3.78 3.51818C3.78 3.08419 3.93804 2.66798 4.21934 2.3611C4.50064 2.05422 4.88218 1.88182 5.28 1.88182ZM16 9.81818H4L7.73 5.74364C7.79649 5.67169 7.88635 5.63132 7.98 5.63132C8.07365 5.63132 8.16351 5.67169 8.23 5.74364L10.07 7.75091L12.605 4.90909C12.6715 4.83714 12.7613 4.79677 12.855 4.79677C12.9487 4.79677 13.0385 4.83714 13.105 4.90909L16 8.06727V9.81818Z" fill="#1A548A"/>
<path d="M3.258 19.042C3.258 19.39 3.138 19.68 2.898 19.912C2.662 20.14 2.3 20.254 1.812 20.254H1.008V22H0.462V17.818H1.812C2.284 17.818 2.642 17.932 2.886 18.16C3.134 18.388 3.258 18.682 3.258 19.042ZM1.812 19.804C2.116 19.804 2.34 19.738 2.484 19.606C2.628 19.474 2.7 19.286 2.7 19.042C2.7 18.526 2.404 18.268 1.812 18.268H1.008V19.804H1.812ZM5.56861 18.652C5.81661 18.652 6.04061 18.706 6.24061 18.814C6.44061 18.918 6.59661 19.076 6.70861 19.288C6.82461 19.5 6.88261 19.758 6.88261 20.062V22H6.34261V20.14C6.34261 19.812 6.26061 19.562 6.09661 19.39C5.93261 19.214 5.70861 19.126 5.42461 19.126C5.13661 19.126 4.90661 19.216 4.73461 19.396C4.56661 19.576 4.48261 19.838 4.48261 20.182V22H3.93661V17.56H4.48261V19.18C4.59061 19.012 4.73861 18.882 4.92661 18.79C5.11861 18.698 5.33261 18.652 5.56861 18.652ZM9.2085 22.054C8.9005 22.054 8.6205 21.984 8.3685 21.844C8.1205 21.704 7.9245 21.506 7.7805 21.25C7.6405 20.99 7.5705 20.69 7.5705 20.35C7.5705 20.014 7.6425 19.718 7.7865 19.462C7.9345 19.202 8.1345 19.004 8.3865 18.868C8.6385 18.728 8.9205 18.658 9.2325 18.658C9.5445 18.658 9.8265 18.728 10.0785 18.868C10.3305 19.004 10.5285 19.2 10.6725 19.456C10.8205 19.712 10.8945 20.01 10.8945 20.35C10.8945 20.69 10.8185 20.99 10.6665 21.25C10.5185 21.506 10.3165 21.704 10.0605 21.844C9.8045 21.984 9.5205 22.054 9.2085 22.054ZM9.2085 21.574C9.4045 21.574 9.5885 21.528 9.7605 21.436C9.9325 21.344 10.0705 21.206 10.1745 21.022C10.2825 20.838 10.3365 20.614 10.3365 20.35C10.3365 20.086 10.2845 19.862 10.1805 19.678C10.0765 19.494 9.9405 19.358 9.7725 19.27C9.6045 19.178 9.4225 19.132 9.2265 19.132C9.0265 19.132 8.8425 19.178 8.6745 19.27C8.5105 19.358 8.3785 19.494 8.2785 19.678C8.1785 19.862 8.1285 20.086 8.1285 20.35C8.1285 20.618 8.1765 20.844 8.2725 21.028C8.3725 21.212 8.5045 21.35 8.6685 21.442C8.8325 21.53 9.0125 21.574 9.2085 21.574ZM12.2784 19.162V21.1C12.2784 21.26 12.3124 21.374 12.3804 21.442C12.4484 21.506 12.5664 21.538 12.7344 21.538H13.1364V22H12.6444C12.3404 22 12.1124 21.93 11.9604 21.79C11.8084 21.65 11.7324 21.42 11.7324 21.1V19.162H11.3064V18.712H11.7324V17.884H12.2784V18.712H13.1364V19.162H12.2784ZM15.2319 22.054C14.9239 22.054 14.6439 21.984 14.3919 21.844C14.1439 21.704 13.9479 21.506 13.8039 21.25C13.6639 20.99 13.5939 20.69 13.5939 20.35C13.5939 20.014 13.6659 19.718 13.8099 19.462C13.9579 19.202 14.1579 19.004 14.4099 18.868C14.6619 18.728 14.9439 18.658 15.2559 18.658C15.5679 18.658 15.8499 18.728 16.1019 18.868C16.3539 19.004 16.5519 19.2 16.6959 19.456C16.8439 19.712 16.9179 20.01 16.9179 20.35C16.9179 20.69 16.8419 20.99 16.6899 21.25C16.5419 21.506 16.3399 21.704 16.0839 21.844C15.8279 21.984 15.5439 22.054 15.2319 22.054ZM15.2319 21.574C15.4279 21.574 15.6119 21.528 15.7839 21.436C15.9559 21.344 16.0939 21.206 16.1979 21.022C16.3059 20.838 16.3599 20.614 16.3599 20.35C16.3599 20.086 16.3079 19.862 16.2039 19.678C16.0999 19.494 15.9639 19.358 15.7959 19.27C15.6279 19.178 15.4459 19.132 15.2499 19.132C15.0499 19.132 14.8659 19.178 14.6979 19.27C14.5339 19.358 14.4019 19.494 14.3019 19.678C14.2019 19.862 14.1519 20.086 14.1519 20.35C14.1519 20.618 14.1999 20.844 14.2959 21.028C14.3959 21.212 14.5279 21.35 14.6919 21.442C14.8559 21.53 15.0359 21.574 15.2319 21.574ZM18.7998 22.054C18.5478 22.054 18.3218 22.012 18.1218 21.928C17.9218 21.84 17.7638 21.72 17.6478 21.568C17.5318 21.412 17.4678 21.234 17.4558 21.034H18.0198C18.0358 21.198 18.1118 21.332 18.2478 21.436C18.3878 21.54 18.5698 21.592 18.7938 21.592C19.0018 21.592 19.1658 21.546 19.2858 21.454C19.4058 21.362 19.4658 21.246 19.4658 21.106C19.4658 20.962 19.4018 20.856 19.2738 20.788C19.1458 20.716 18.9478 20.646 18.6798 20.578C18.4358 20.514 18.2358 20.45 18.0798 20.386C17.9278 20.318 17.7958 20.22 17.6838 20.092C17.5758 19.96 17.5218 19.788 17.5218 19.576C17.5218 19.408 17.5718 19.254 17.6718 19.114C17.7718 18.974 17.9138 18.864 18.0978 18.784C18.2818 18.7 18.4918 18.658 18.7278 18.658C19.0918 18.658 19.3858 18.75 19.6098 18.934C19.8338 19.118 19.9538 19.37 19.9698 19.69H19.4238C19.4118 19.518 19.3418 19.38 19.2138 19.276C19.0898 19.172 18.9218 19.12 18.7098 19.12C18.5138 19.12 18.3578 19.162 18.2418 19.246C18.1258 19.33 18.0678 19.44 18.0678 19.576C18.0678 19.684 18.1018 19.774 18.1698 19.846C18.2418 19.914 18.3298 19.97 18.4338 20.014C18.5418 20.054 18.6898 20.1 18.8778 20.152C19.1138 20.216 19.3058 20.28 19.4538 20.344C19.6018 20.404 19.7278 20.496 19.8318 20.62C19.9398 20.744 19.9958 20.906 19.9998 21.106C19.9998 21.286 19.9498 21.448 19.8498 21.592C19.7498 21.736 19.6078 21.85 19.4238 21.934C19.2438 22.014 19.0358 22.054 18.7998 22.054Z" fill="#1A548A"/>
</svg>
